<?xml version="1.0" encoding="utf-8"?>
<!-- Generator: Adobe Illustrator 19.2.1, SVG Export Plug-In . SVG Version: 6.00 Build 0)  -->
<svg version="1.1" id="layer" xmlns="http://www.w3.org/2000/svg" xmlns:xlink="http://www.w3.org/1999/xlink" x="0px" y="0px"
	 viewBox="0 0 652 652" style="enable-background:new 0 0 652 652;" xml:space="preserve">
<style type="text/css">
	.st0{fill:#0E4C6C;}
</style>
<g>
	<path class="st0" d="M532.1,296.6c-1.7,2.1-4.8,7.1-9.5,10.6c-2.4,1.8-6.8,2.5-8.2,4.7c-2.2,3.4-2.6,16.5-0.6,20.4
		c1.8,3.4,5.4,3,8.7,5.8c-0.5,7.2-10.2,4.3-12.8,0.6c-5.1-7.2,1.7-20.6,0-28c-0.8-3.5-4.6-4.9-5.3-7c-1.9-10.8,4.1-18.8,4.7-27.4
		c0.4-5.8-2.2-12.1-2.9-18.1c-0.4-3.2-0.4-6.8-0.6-9.9c-0.1-2.6-1.8-6,1.2-8.2c3.1,4,3.2,11,4.1,17.5c0.7,5.2,2.4,12.6,2.3,18.7
		c-0.1,6.8-9.4,33.2,6.4,27.4c7.3-2.6,12.6-18,13.4-28.6c1-14.4-2.7-32.3-5.2-42.6c-1-3.9-7.5-11.4-11.1-11.7
		c-4.8-0.3-4.6,3.4-8.7,4.7c-0.6-6.7,9-9,16.3-6.4c11.7,12.7,16.5,37.2,14.3,60.2l-0.1,0.8c-2.2,5.8-2.8,10.6-5.8,15.5L532.1,296.6z
		 M535.1,294.5c1.2-2.2,21.3-3.7,34.1-3.1c10.6,0.6,18.8,4.1,27.4,4.7c3.6-7.6-4.8-9.7-9.9-11.7c-2.3-0.9-4.1-2.1-5.8-2.3
		c-12.2-1.8-27.5,1.8-39.6,1.2c-0.7-0.2-0.7-0.8-0.8-1.4l0.4-2.6c0.8-0.8,1.1-2.5,3.3-2.4c12.1-0.3,25.4-2.7,37.9-0.6
		c9,1.5,19.4,6,20.4,13.4c0.5,3.3-1.3,5.1-1.2,8.2c0.2,3.9,3.7,7.8,3.5,12.8c-0.3,7.9-5.3,9.9-9.3,16.3c1.8,3.9,8.1,3.2,12.8,4.1
		c3.7-4.2-2.6-8.1-1.2-11.7c7.5-1.7,12,8.9,9.3,15.7c0,2.7,1.9,3.6,1.7,6.4c-1.7,2.6-3.2,5.2-5.8,5.8c-7.9,1.9-16.4-5.9-21.6-8.2
		c-1.2-0.2-1.8,0.1-1.7,1.2c-14.5-6.5-33.9-4.5-50.7-4.1c-0.9-3.1,1.2-3.1,1.7-4.7c-5.8,2.4-24.4,5.2-18.7-7.6
		c4.5-10.1,22.7-15.5,36.1-15.7c2.6-2.3,1.3-6.9,0.6-10.5c-8.4-0.2-16.2,0.1-22.7,1.7c-1.7,0.5-1.8-1.6-1.7-2.1
		C533.7,297,533.9,296.7,535.1,294.5 M579.7,299c-1.5,2.5-4,7.2-1.7,9.9c3.3-2.3,9.4-1.9,9.9-7C585.9,300,581.7,299.3,579.7,299
		 M587.9,308.9c0.4,2.3,4.1,1.4,4.1,4.1c-3.4,4-11.3-2.4-16.9,0c-1.5,3.1-3.8,9.2-1.2,12.8c4.1-0.4,8.1,1.4,12.2,0.6
		c5.5-1.1,12.7-9.1,13.4-13.4c0.7-4.7-2.1-5.7-4.1-8.2C591.5,304.8,589.4,306.7,587.9,308.9 M528.4,329.9c10.4,1,21.6-3.9,31.5-3.5
		c3.2-2.7,1.9-10.1,0.6-14.6C545.8,310.7,527.2,315.9,528.4,329.9 M541.8,330.5c-0.1,3.2,5.3,1.7,6.4,1.7c5.1,0.2,13.2,1.9,11.1-3.5
		C553.1,329.7,547.5,330.4,541.8,330.5 M594.3,338.7c4.9,1.6,11,5.9,14,4.7c8.4-3.3-4.8-10.3-7.6-11.1c-7.3-2.1-17.8-3-21,1.8
		C582.9,336.2,588.1,336.7,594.3,338.7"/>
	<path class="st0" d="M591.9,342.8c0.6,4.9-5.8,5.3-9.3,5.8c-6.2,0.9-14.5,0.2-20.4,0c-1.6,1.7-0.9,5.7-2.9,7c-5.1,2-7.4-2.3-7.6-7
		c-8.3-1.4-19.8,0.4-23.3-5.8c5.9-1.2,13.6,6,16.9-1.7c11.7,1.9,25.6,6.6,39.1,4.1C587,344.6,588.9,341.7,591.9,342.8"/>
	<path class="st0" d="M556.4,363.2c4.1,4.4,2.2,16.5,0,21.6c0.5,2.8,2.6,4,4.1,5.8c3.3-0.5,4-3.1,7.6-3.5c4.1-0.4,9.5,3.9,13.4,0.6
		c-0.4-6.1-8.3-1.4-12.2-1.8c0.9,0.1-2.3-0.8-1.7-0.6c-1.1-0.3-1-0.6-1.7-1.2c0.6-3.7,5.6-2.6,9.3-2.9c4.6-0.4,10.3-1.3,13.4,0.6
		c1.1,2,1.1,5.1,1.7,7.6c10.5,1.6,21.9,2.2,27.4,8.8c-1,5,1.9,6.2,2.9,9.3c0.2,4.6-7.2,5.4-9.9,3.5c-2.6-5.6,4.5-4.3,2.9-9.9
		c-0.4-1.3-4.8-3.6-6.4-4.1c-6.1-1.6-17.2-0.2-26.8-1.2c-5.6-0.6-12.7-2.5-18.1-3.5c-1.7,7.2,4.9,12.5,4.1,19.2
		c-0.5,4.1-5.4,7-4.1,12.2c-2.6,1.6-8.9,4-10.5,0c-0.2-3.7,2.3-4.7,4.7-5.8c3.1-10.8-1.6-18.9-4.7-26.8c-12.7,2.4-24,4.4-37.3,5.8
		c-1.6,0.2-3.4,1.1-5.3,1.2c-4,0.1-8.1-1.4-11.7,1.2c0.1,1.5-0.9,1.8-1.2,2.9c0.6,3.3,3,3.3,2.3,6.4c-0.8,3.7-7.3,5-9.9,1.7
		c-1.4-3,2.5-4.1,3.5-6.4c0.7-1.5,0.2-3.8,1.2-5.2c1.5-2.3,7.6-5.7,11.7-6.4c3.4-0.6,7.7,0.3,11.7,0c13.4-1.1,28-6.1,36.1-5.3
		c0.1-3.3-2.4-3.9-2.9-6.4C550.9,372.5,547.3,363.3,556.4,363.2"/>
	<path class="st0" d="M542.4,382.4c-2.9,4.1-9.2-0.6-14-1.2c-2.5-0.3-4.9,0.2-7.6,0c-2.3,2-5.1,7.2-8.8,2.9c0.1-0.7-0.1-1-0.6-1.2
		C515.3,372.3,535.3,379,542.4,382.4"/>
	<path class="st0" d="M34,298.7c-6.8,0-11.7-0.6-12.1,1.9c-0.4,2.5,1.5,5.8,1.9,8.1c0.4,2.3,1.1,13.9,0.1,18.5
		c-1,4.6-3.3,7.8-1.7,9.2c1.6,1.4,2.4,11.8,1.7,17.5c-0.7,5.7-0.1,32.3-0.1,40.3s0.7,9-1.3,11.2c-1.9,2.2-2.9,4.9-1.1,4.9h41.8
		c1.3,0,1.3-5.9,1.3-8.5c0-2.6-1.4-3.9-1.4-5.4c0-1.5-2.4-1.5-3.5,0c-1.1,1.4-4.5,4.1-7.3,4c-2.8-0.1-6,0.2-6.8-2
		s-3.2-48.9-1.6-66.9c1.6-18,1.6-30.8,1.6-31.8C45.4,298.7,34,298.7,34,298.7"/>
</g>
<g>
	<path class="st0" d="M72.4,298.7c1.6,0,14.6,0.5,17.2,0.5c2.6,0,3.9,0.4,3.9,2.8c0,2.4-0.9,8.6-1.4,12c-0.5,3.4,0,48.2,0,52.4
		c0,4.2-0.9,25.6-0.5,31.4c0.5,5.9,1.2,5.6,1.9,7.2c0.7,1.6,2.1,5.3,0,5.3c-2.1,0-21.8,0.7-22.6,0c-0.8-0.7,2-4.9,2.2-6.5
		c0.2-1.6,0.2-12.2,0.2-15c0-2.8-1.4-19.2-1-21.5c0.4-2.3,1-14.5,1-18.7c0-4.2-0.9-16.9-1.1-19.2c-0.2-2.4,0.2-18.8,0.2-20.6
		c0-1.8-0.4-4.9-1.3-5.5C70.3,302.8,72.4,298.7,72.4,298.7"/>
	<path class="st0" d="M144.6,299.7c-4.1-1.1-12.7-0.9-17.7-0.9c-5,0-21.4-1.7-22.4,0.1c-1,1.8-1,12.4-0.5,14.8
		c0.6,2.4,2.4,22,2.3,25.6c-0.2,3.7,0.2,5-0.4,10.8c-0.6,5.8,0.9,19-0.9,22.1c-1.7,3.1,0.3,9.3,0.3,12.7c0,3.4,0.8,16.8-0.3,19.2
		c-1.1,2.4-4.2,5.7-2.1,6.4c2.1,0.7,15.2,0,19,0c3.8,0,4.7-1.5,3.2-3.7c-1.5-2.2,0.4-3.8,0.4-5.4v-21.2c0-4-0.4-9.2-0.2-11.8
		c0.2-2.6,1.6-11.4,4-11.7c2.4-0.3,5.6,0,9,0c3.4,0,6.5,1.3,6.3-1.1c-0.2-2.4-0.7-7.1-2.9-6.2c-2.2,1-5.6,0.3-8,0.4
		c-2.5,0.1-5.6-0.6-6.4-2.2c-0.8-1.6-1.4-4.4-1.8-8s1-18.4,1-21.4c0-3.1,2.2-10.1,3.2-11c0.9-1,6.7-2.7,7.6-0.6
		c1,2.1,2.1,4.6,4.8,4.5c2.7-0.2,4.5,0.3,4.7-2.4c0.2-2.7,0.5-5.3-0.8-7L144.6,299.7z"/>
	<path class="st0" d="M194.4,299.7c-4.1-1.1-12.7-0.9-17.7-0.9c-5,0-24.7-0.4-24,1.5c2.7,7.7,1.6,13.5,2.3,16.6
		c0.6,2.4,1.3,18.7,1.1,22.4c-0.2,3.7,0.2,5-0.4,10.8c-0.6,5.8,0.9,19-0.9,22.1c-1.7,3.1,0.3,9.3,0.3,12.7c0,3.4,0.8,16.8-0.3,19.2
		c-1.1,2.4-4.2,5.7-2.1,6.4c2.1,0.7,36.4,0,40.2,0c3.8,0,4.9-8.3,3.4-10.5c-1.5-2.2-14.4,2.8-14.4,1.2c0-1.6-5.4,2-5.4-2
		c0-4-2.2-28-2-30.6c0.2-2.6,2.6-10.1,5-10.4c2.4-0.3,5.2-1.5,8.6-1.5c3.4,0,6.5,1.3,6.3-1.1c-0.2-2.4-0.5-4.6-2.9-6.2
		c-2-1.3-5.6,0.3-8,0.4c-2.5,0.1-5.6-0.6-6.4-2.2c-0.8-1.6,0.7-4.8,0.3-8.4s-1.2-17.9-1.2-21c0-3.1,2.2-10.1,3.2-11
		c1-1,6.7-2.7,7.6-0.6c1,2.1,2.1,4.6,4.8,4.5c2.7-0.2,4.4,0.3,4.7-2.4c0.2-2.7,0.5-5.3-0.8-7L194.4,299.7z"/>
	<path class="st0" d="M245.5,299.7c-4.1-1.1-12.7-0.9-17.7-0.9c-5,0-21.4-1.7-22.4,0.1c-1,1.8-1,12.4-0.5,14.8
		c0.6,2.4,0.2,19.3,0.1,23c-0.2,3.7,2.4,7.6,1.8,13.4c-0.6,5.8,0.9,19-0.9,22.1c-1.7,3.1,0.3,9.3,0.3,12.7c0,3.4-1.2,12.2-1.4,17.6
		c0,0.6-0.5,0.9-0.4,5.2c0,4,14.7,2.7,18.5,2.7c3.8,0,5.6-1.5,4.1-3.7c-1.5-2.2-0.5-3.8-0.5-5.4v-21.2c0-4-0.4-9.2-0.2-11.8
		c0.2-2.6-0.7-9.8,1.7-10.1c2.4-0.3,4.9,1,8.3,1c3.4,0,9.2,1.7,9-0.7c-0.2-2.4-0.4-10.2-2.6-9.2c-2.2,1-5.6,0.3-8,0.4
		c-2.5,0.1-5.6-0.6-6.4-2.2c-0.8-1.6-1.4-4.4-1.8-8c-0.4-3.6,0.9-18.4,0.9-21.4c0-3.1,2.2-10.1,3.2-11c1-1,5.5-0.7,6.5,1.4
		c1,2.1,3.2,2.6,5.9,2.4c2.7-0.2,4.5,0.3,4.7-2.4c0.2-2.7,0.3-4.1-1-5.8C245.3,300.9,245.5,299.7,245.5,299.7"/>
	<path class="st0" d="M280,308.6c3.1,0.1,2,2.4,2.2,3.9c0.2,1.5,2.9,10.5,2.6,16.1c-0.3,5.6,1.1,16.7,1.1,20.8
		c0,4.2-1.3,25.4-1.8,28.2c-0.5,2.8,0,13,0.4,20.2c0.4,7.2-2.6,3.7-5.4,4.2c-2.8,0.5-3.9-3.6-5-5.8c-1.1-2.2-0.4-33-1.1-43.1
		c-0.7-10,2.4-40,3.7-43.3C276.6,310,277,308.5,280,308.6 M278.9,298.7c-5.8,0-13.2,0.5-16.4,2.5c-3.2,2-5.7,3.3-5.8,6
		c-0.1,2.6,0.3,8-1.1,10.3c-1.4,2.3-1.9,2.2-1.9,5.4c0,3.2-2.6,46.2,0.2,51.8c2.8,5.6,3.4,23.4,5.6,26.2c2.3,2.9,8.1,9.5,12.3,9.5
		c4.1,0,12.2,1.3,16.2-1.3c4-2.5,10.6-10.3,11.8-12.9c1.2-2.6,2.2-15.4,2.2-19v-28.8c0-3.8-0.6-30-0.4-33.4c0.2-3.4-4-8.9-5.6-10
		c-1.6-1.2-6.2-4.6-7.8-5.3C286.5,299,278.9,298.7,278.9,298.7"/>
	<path class="st0" d="M315.7,298.7h21c5,0,4.9,1.1,11.4,0.9c7.3-0.3,6,5.3,9,8.2c3,2.9,2.4,6.8,1.6,13.6c-0.8,6.8,0.2,9.8-0.6,12.6
		c-0.8,2.8,0,19.4-1.4,24c-1.4,4.6-3.8,7.5-4.8,11.3c-0.9,3.8,3.8,7.2,5.6,10.2c1.8,3,3.4,13.4,3,16.4c-0.4,3,0,7.9,1,8.2
		c1,0.3,2,2.1,1.9,4.1c0,2-1.9,2.3-5,2.3c-3,0-19.1,0-20-0.9c-0.9-0.9,1.8-2.2,1.7-4.6c-0.1-2.4,2.9-1.3,3.1-4.7
		c0.2-3.3-0.8-11-2-14.8c-1.2-3.8-1.4-9.2-3.2-12.2c-1.8-3-5.6-2-7.4-0.4c-1.7,1.6-0.5,9.6-0.8,11.4c-0.3,1.8-0.5,11.2,0,16.6
		c0.5,5.4,2.4,3.2,2.4,4.6c0,1.4-2.9,4.9-6.1,4.9c-3.2,0-11,0.9-13.6,0c-2.6-0.9,0-8.1,0-11.5c0-3.4,0.2-31,1-40.2
		c0.8-9.2,0.8-22.8-0.5-27.2c-1.3-4.4-1.9-16.5-1.8-20.1c0.1-3.6-0.7-5.4-1.2-6.9c-0.5-1.5,0-4.5,2.4-5
		C315,299.1,313,298.7,315.7,298.7 M329.3,307.8c-1.6,0.8,0.4,4.6,0.6,7c0.2,2.4,0.4,44-0.2,46.5c-0.6,2.5,1.9,0.2,3,0.5
		c1.1,0.3,3.8-0.3,5.3-1.3c1.4-1,1.3-2,2.3-6.7c1.1-4.6-0.1-18-0.1-21.4c0-3.4-0.1-10.2-0.7-13.2c-0.6-3-1.7-6.8-2.6-10.4
		c-0.9-3.6-2.6-1.8-4.3-2C332.6,306.8,330.9,307,329.3,307.8"/>
	<path class="st0" d="M369.9,410.4c-1-2.5,0.5-6.1,1.4-8.1c0.9-2,2-1.2,2-5.6c0-4.4-0.4-6.1,0-11.7c0.4-5.5,0.3-20.8,0.3-25
		c0-4.1-1-11,0-13.6c1-2.6,0-2.8,0-5.4c0-2.6-1-7.2,0.2-10.2c1.2-3,0.7-8.4-0.2-12c-1-3.6-0.9-6.8-1.4-9s-3.3-11.1,3.5-11.1
		c6.8,0,16-1.6,16.7,0.9c0.7,2.5,0.9,0.8,1.4,5.7c0.5,4.9,6.7,27.3,6.9,29.6c0.2,2.3,4.7,28.6,7.8,28.6c3,0,2.9-3.7,4.3-6.2
		c1.4-2.5,4.5-37,5.3-41.8c0.7-4.8,0.8-11.3,2.8-13.6c2.1-2.3,3.7-3.2,6.5-3.2c2.8,0,15.6-2,17,0.9c1.5,2.9,2.3,12.1,1.2,16.1
		c-1.2,4.4-0.1,10.6-1.2,13c-1.1,2.4-1.3,3.9-1,6.3c0.3,2.4,0.1,4.7,0.6,7.5c0.4,2.8,1.4,5.4,0.4,8.2c-1,2.8-0.6,7,0,8.4
		c0.6,1.4,0,5.4,0,8.1c0,2.7-1.6,8.8,0,11.4c1.6,2.7-0.8,17.1,0,20.3c0.8,3.2,3.1,5.9,3,9.8c-0.1,3.9-3,2.6-4.6,1.4
		c-1.6-1.2-16.2,0.2-19,0.2c-2.8,0-5.8,1.3-4.3-1.1c1.4-2.4,4.1-9.6,3.8-15c-0.3-5.5,0.3-7.6,0.7-10.4c0.4-2.8-0.3-3.6-2.1-7.8
		c-1.9-4.2-1.7-7.8-1.7-8.4c0-0.6-2.6,3.4-4,8c-1.4,4.6-4.6,8.4-4,12.6c0.6,4.2-1.1,8.2-2.1,12.8c-1,4.6,1.1,6.8-2.2,8.1
		c-3.3,1.3-6.3,0.9-6.2,0c0.1-0.9,1.3,1.4,0-2.5c-1.3-4-3.7-7.7-3.7-9.5c0-1.8,0-5.8-1.9-9.8c-1.9-4-3.9-8.8-4.8-11.3
		c-1-2.5-1.6-7.5-2.5-7.8c-1-0.3-2-3.3-2.6-1.7c-0.6,1.6-2,15.2-1.8,17.8c0.2,2.6,0.6,8.2,0.2,9.8c-0.4,1.6-2,4-1.6,6.2
		c0.4,2.2,0.2,3.2,2.2,4.8c2,1.6,0.6,5.3,0.6,5.3H369.9z"/>
	<path class="st0" d="M467.3,325.7c-6.7,0-12-5.9-12-13c0-7.2,5.4-13,12-13c6.7,0,12.1,5.9,12.1,13
		C479.4,319.8,474,325.7,467.3,325.7 M467.4,301.7c-5.5,0-9.8,5-9.8,10.9c0,5.9,4.3,10.9,9.8,10.9c5.4,0,9.8-5,9.8-10.9
		C477.1,306.7,472.8,301.7,467.4,301.7 M469.9,320.6l-2.9-6.7h-1.1v6.7h-3.1v-15.6c1.3-0.1,2.7-0.2,3.9-0.2c4.1,0,5.5,1.9,5.5,4.5
		c0,1.8-0.8,3.1-2.3,4l3.6,7.4H469.9z M467,307.2h-1.1v4.3h1c1.3,0,1.9-0.8,1.9-2.2C468.8,307.9,468.4,307.2,467,307.2"/>
</g>
</svg>
